<?xml version="1.0" encoding="UTF-8" standalone="no"?>
<svg
   width="127.865"
   height="124.433"
   version="1.1"
   id="svg156"
   sodipodi:docname="qgis.svg"
   inkscape:version="1.2.2 (b0a8486541, 2022-12-01)"
   xmlns:inkscape="http://www.inkscape.org/namespaces/inkscape"
   xmlns:sodipodi="http://sodipodi.sourceforge.net/DTD/sodipodi-0.dtd"
   xmlns="http://www.w3.org/2000/svg"
   xmlns:svg="http://www.w3.org/2000/svg">
  <defs
     id="defs160" />
  <sodipodi:namedview
     id="namedview158"
     pagecolor="#ffffff"
     bordercolor="#000000"
     borderopacity="0.25"
     inkscape:showpageshadow="2"
     inkscape:pageopacity="0.0"
     inkscape:pagecheckerboard="0"
     inkscape:deskcolor="#d1d1d1"
     showgrid="false"
     inkscape:zoom="16.69975"
     inkscape:cx="63.953052"
     inkscape:cy="62.216499"
     inkscape:window-width="3840"
     inkscape:window-height="2400"
     inkscape:window-x="-68"
     inkscape:window-y="0"
     inkscape:window-maximized="1"
     inkscape:current-layer="svg156" />
  <path
     fill="param(fill) #589632"
     fill-opacity="param(fill-opacity)"
     stroke="param(outline)"
     stroke-opacity="param(outline-opacity)"
     stroke-width="param(outline-width) 0"
     d="M86.891 67.433l-15.194-15H52.613v18.121l16 15.802V67.433z"
     id="path150"
     style="fill:#88aa00" />
  <path
     fill="param(fill) #589632"
     fill-opacity="param(fill-opacity)"
     stroke="param(outline)"
     stroke-opacity="param(outline-opacity)"
     stroke-width="param(outline-width) 0"
     d="M94.488 75.433H76.613v18.408l30.53 30.592h19.47v-17.568z"
     id="path152"
     style="fill:#88aa00" />
  <path
     fill="param(fill) #589632"
     fill-opacity="param(fill-opacity)"
     stroke="param(outline)"
     stroke-opacity="param(outline-opacity)"
     stroke-width="param(outline-width) 0"
     d="M68.923 99.36c-1.165.242-1.769.157-4.685.157-20.866 0-38.612-17.158-38.612-39.406 0-22.248 17.551-39.027 38.612-39.027 21.061 0 37.833 16.78 37.833 39.027 0 3.619-.451 7.099-1.284 10.398L120.1 89.82c4.979-8.726 7.765-18.869 7.765-29.857C127.865 25.674 100.502 0 63.849 0 27.363-.001 0 25.504 0 59.962 0 94.587 27.363 120.6 63.848 120.6c9.417 0 16.069-1.469 23.042-3.761z"
     id="path154"
     style="fill:#88aa00" />
</svg>
